<?xml version="1.0" encoding="UTF-8"?>
<!DOCTYPE svg PUBLIC "-//W3C//DTD SVG 1.1//EN" "http://www.w3.org/Graphics/SVG/1.1/DTD/svg11.dtd">
<!-- Creator: CorelDRAW X8 -->
<svg xmlns="http://www.w3.org/2000/svg" xml:space="preserve" width="11mm" height="15mm" version="1.1" style="shape-rendering:geometricPrecision; text-rendering:geometricPrecision; image-rendering:optimizeQuality; fill-rule:evenodd; clip-rule:evenodd"
viewBox="0 0 1100 1500"
 xmlns:xlink="http://www.w3.org/1999/xlink">
 <defs>
  <style type="text/css">
   <![CDATA[
    .fil0 {fill:#F2FFFF}
   ]]>
  </style>
 </defs>
 <g id="ﾃ神x00a1_ﾃ神x00bb_ﾃ神x00be_ﾃ神x00b9__x0020_1">
  <metadata id="CorelCorpID_0Corel-Layer"/>
  <g id="_1871572093072">
   <path class="fil0" d="M599 842c-29,70 -51,156 -87,247 -17,42 -43,127 -79,255 -26,93 -45,140 -57,140 -9,0 -19,-18 -31,-54 -46,-145 -84,-252 -115,-320 -2,-8 -17,-41 -47,-99 -35,-71 -64,-124 -87,-158 -18,-27 -41,-52 -69,-75 -10,-7 -15,-14 -15,-19 0,-19 9,-51 28,-98 19,-47 33,-70 43,-70 9,0 27,22 55,66 23,35 51,89 89,157 4,7 16,35 37,80 23,47 37,88 51,120 6,17 59,171 64,171 7,0 28,-62 47,-114 35,-94 59,-160 75,-197 33,-81 58,-141 73,-167 8,-17 76,-141 107,-188 60,-89 142,-193 217,-269 46,-47 93,-82 109,-94 49,-36 129,-91 132,-90 7,5 -13,11 -6,34 3,11 -44,33 -90,77 -57,54 -59,56 -91,88 -80,77 -181,216 -233,315 -45,84 -84,174 -120,262z"/>
   <path class="fil0" d="M607 370c-14,19 -82,117 -137,258 -10,25 -30,75 -52,152 -16,56 -27,84 -34,84 -5,0 -11,-11 -19,-32 -28,-88 -51,-152 -69,-193 -1,-5 -11,-25 -28,-60 -22,-43 -41,-71 -55,-92 -11,-17 -23,-35 -40,-49 -6,-4 -9,-8 -9,-11 0,-11 6,-31 17,-60 12,-28 20,-42 26,-42 5,0 16,13 33,40 14,22 30,55 53,96 22,38 37,81 54,122 16,37 25,92 37,94 8,2 14,-23 30,-60 68,-156 158,-280 266,-403 4,-4 117,-116 139,-132 10,-8 28,-23 42,-35 26,-22 51,-40 58,-47 3,-3 -6,16 -1,30 2,6 -45,43 -72,71 -17,18 -36,34 -54,51 -28,29 -55,60 -84,91 -35,39 -70,83 -101,127z"/>
  </g>
 </g>
</svg>
